<svg width="20" height="19" viewBox="0 0 20 19" fill="none" xmlns="http://www.w3.org/2000/svg">
<path d="M5.59021 11.9497H6.47524L6.78891 11.6564C5.69104 10.418 5.03007 8.81018 5.03007 7.06118C5.03007 3.16124 8.29009 0 12.3119 0C16.3337 0 19.5938 3.16124 19.5938 7.06118C19.5938 10.9611 16.3337 14.1224 12.3119 14.1224C10.5083 14.1224 8.85024 13.4814 7.57311 12.4168L7.27064 12.721V13.5792L1.66922 19L0 17.3814L5.59021 11.9497ZM12.3119 11.9497C15.1014 11.9497 17.3532 9.76615 17.3532 7.06118C17.3532 4.3562 15.1014 2.17267 12.3119 2.17267C9.52241 2.17267 7.27064 4.3562 7.27064 7.06118C7.27064 9.76615 9.52241 11.9497 12.3119 11.9497Z" fill="white"/>
</svg>
