<svg width="25" height="24" viewBox="0 0 25 24" fill="none" xmlns="http://www.w3.org/2000/svg">
<path d="M17.6402 15.0943H16.5562L16.1719 14.7238C17.5167 13.1595 18.3263 11.1286 18.3263 8.91938C18.3263 3.99314 14.3332 0 9.40693 0C4.48069 0 0.487549 3.99314 0.487549 8.91938C0.487549 13.8456 4.48069 17.8388 9.40693 17.8388C11.6162 17.8388 13.6471 17.0292 15.2114 15.6844L15.5819 16.0686V17.1527L22.443 24L24.4876 21.9554L17.6402 15.0943ZM9.40693 15.0943C5.99012 15.0943 3.23197 12.3362 3.23197 8.91938C3.23197 5.50257 5.99012 2.74443 9.40693 2.74443C12.8237 2.74443 15.5819 5.50257 15.5819 8.91938C15.5819 12.3362 12.8237 15.0943 9.40693 15.0943Z" fill="#6E6E6E"/>
</svg>
